PathFileType	4	(X/Y/Z)	c:/Users/goper/Files/vsCode/490R/osim_files/C17/C17_SSWS_03.trc
DataRate	CameraRate	NumFrames	NumMarkers	Units                	OrigDataRate	OrigDataStartFrame	OrigNumFrames
250.00	250.00	10	36	mm	250.0	760	2025
                Frame#	Time	LPSIS			LASIS			LTH1			LTH2			LTH3			LTH4			LLFE			LMFE			LSH1			LSH2			LSH3			LSH4			LLMAL			LMMAL			LCAL			LMTP5			LTOE			LMTP1			RPSIS			RASIS			RTH1			RTH2			RTH3			RTH4			RLFE			RMFE			RSH1			RSH2			RSH3			RSH4			RLMAL			RMMAL			RCAL			RMTP1			RTOE			RMTP5		
		X1	Y1	Z1	X2	Y2	Z2	X3	Y3	Z3	X4	Y4	Z4	X5	Y5	Z5	X6	Y6	Z6	X7	Y7	Z7	X8	Y8	Z8	X9	Y9	Z9	X10	Y10	Z10	X11	Y11	Z11	X12	Y12	Z12	X13	Y13	Z13	X14	Y14	Z14	X15	Y15	Z15	X16	Y16	Z16	X17	Y17	Z17	X18	Y18	Z18	X19	Y19	Z19	X20	Y20	Z20	X21	Y21	Z21	X22	Y22	Z22	X23	Y23	Z23	X24	Y24	Z24	X25	Y25	Z25	X26	Y26	Z26	X27	Y27	Z27	X28	Y28	Z28	X29	Y29	Z29	X30	Y30	Z30	X31	Y31	Z31	X32	Y32	Z32	X33	Y33	Z33	X34	Y34	Z34	X35	Y35	Z35	X36	Y36	Z36

760	3.03600	1113.65125	1023.41864	207.80287	930.26855	972.04199	333.18311	1109.89832	688.67291	348.05322	1111.56433	643.55750	340.91959	1047.07739	675.73431	354.29150	1059.26477	633.35571	347.77161	1163.22815	482.48120	312.63446	1154.03003	486.29654	189.23093	1343.23230	319.54227	301.66443	1364.75720	282.39896	294.44556	1291.78625	281.08554	300.62286	1321.59229	249.99695	292.75912	1432.14539	153.02336	267.15533	1413.72705	160.53096	180.31442	1518.77454	155.23904	220.03679	1362.32190	39.82076	279.38821	1311.17957	50.95520	210.52036	1327.13110	39.01156	160.46974	1101.72473	1017.14728	135.16783	919.83392	992.92090	61.74355	850.13397	714.42896	15.66171	829.53552	673.29828	25.60396	798.31952	738.13391	32.55947	782.73309	693.44269	36.49844	716.70325	490.23141	59.48066	747.83209	493.68140	179.78046	725.97614	280.23880	58.13980	706.70746	241.37207	71.96523	665.42346	301.75623	67.76572	653.74982	257.23154	80.02666	634.67102	86.68031	107.49268	624.91718	110.13557	195.10889	693.04547	31.74873	146.80681	477.93387	98.53773	209.16708	468.36551	130.19766	165.84007	499.07156	77.02130	98.15793
761	3.04000	1106.01233	1022.62195	208.13945	922.55786	971.24738	333.47784	1101.55151	687.48267	347.85699	1104.09167	643.08838	340.64108	1038.71094	674.62610	354.35565	1050.12683	632.07007	347.79810	1154.66736	481.33200	313.18588	1144.96021	484.87692	189.74225	1336.36450	321.37625	301.90900	1358.90747	284.42123	294.92807	1285.64087	282.18585	301.26248	1316.28735	251.54970	293.44296	1428.19019	155.79933	267.88712	1409.66223	163.22211	181.07739	1513.82642	160.60864	220.55104	1360.81238	40.51038	279.37869	1310.77917	51.24769	210.40933	1326.58301	39.30320	160.63571	1094.05017	1016.43799	135.37325	912.90753	993.10596	61.75968	842.98926	714.27185	15.84300	822.36774	673.05859	25.71679	791.17621	737.91437	32.95277	775.59656	693.14691	36.80112	709.41412	489.90744	59.26633	740.87463	493.14728	180.08119	719.55994	280.83734	59.24125	697.38940	240.17398	73.91412	658.53815	301.32343	67.70085	647.17694	256.92480	80.57195	631.40137	86.11517	107.23008	620.98431	109.16676	195.25844	691.70148	33.11152	146.67841	474.44955	93.35771	209.46202	463.48370	124.56151	166.49786	496.39539	72.52397	98.56099
762	3.04400	1098.45007	1022.01587	208.50394	914.68829	970.32214	333.74075	1093.11658	686.30304	347.68835	1094.57825	641.16071	340.79907	1030.32434	673.67731	354.60931	1041.54163	630.99756	348.02792	1145.70215	480.28293	313.20795	1135.64758	483.42432	190.29173	1329.07593	323.32483	302.08020	1352.07520	286.14862	294.86526	1278.44434	283.29599	301.57043	1310.26685	253.21556	293.92752	1423.33398	158.64948	268.44818	1404.88354	165.60637	182.10358	1509.92566	165.72893	220.85812	1359.71741	41.25771	279.53534	1310.63013	51.63391	210.17944	1326.14221	39.51641	160.86041	1086.44812	1015.93304	135.53543	905.97870	993.34760	61.77251	836.19293	714.24646	15.90387	815.56500	672.90179	25.52405	784.35291	738.07562	32.96544	768.92584	693.14075	36.72836	701.78864	490.01196	59.07446	734.38599	493.13977	180.46786	712.78479	281.82220	59.82645	691.71936	241.06729	74.11147	651.51392	301.55310	68.23096	640.67554	256.81061	80.80334	628.80530	85.43398	106.69834	617.84076	108.16353	195.23611	690.66418	34.25597	146.48845	471.40414	88.56693	209.24017	459.50607	119.23307	166.16765	494.17865	67.98290	98.48848
763	3.04800	1090.94482	1021.61353	208.93312	906.89551	969.45734	333.97815	1084.46936	684.99451	347.55356	1085.79077	639.85846	340.81177	1022.06702	673.07043	355.34213	1032.86255	629.96912	348.32962	1136.44287	478.90509	314.36960	1126.11487	481.91205	190.90067	1321.67188	325.22214	302.39835	1345.53247	288.28860	295.40262	1272.41064	284.55182	302.69998	1303.82678	254.86685	294.65445	1418.95984	161.65482	269.30222	1400.18994	168.43840	182.86945	1504.58447	171.31693	221.61896	1358.91504	42.11395	279.47754	1310.35730	51.59659	210.42776	1325.03894	39.59781	161.04118	1078.84131	1015.54614	135.69754	899.04791	993.64423	61.78204	829.56287	714.22363	15.95285	808.97021	672.97540	25.28751	777.73950	738.13513	32.81591	762.21570	693.23346	36.42394	693.37708	490.72620	58.83757	728.17615	493.54575	180.68350	706.07025	282.96216	59.51381	685.56055	241.85204	73.77293	644.47345	301.87225	68.71179	634.35864	256.67075	80.94628	626.66254	84.67591	106.03146	614.67773	107.01863	193.86470	689.66583	35.23655	146.31654	468.83456	84.52645	208.54298	456.14926	114.38571	165.05391	492.43088	63.53085	97.86962
764	3.05200	1083.22510	1021.08112	209.34883	899.32599	968.78033	334.28702	1075.71179	683.69781	347.47162	1077.03625	638.76013	340.82684	1013.81079	672.66229	356.35687	1024.07214	628.87518	348.63513	1126.89917	477.61240	315.10675	1116.49890	480.56781	191.39548	1314.53918	326.78336	303.14905	1339.17480	290.72571	296.46774	1265.01941	285.59848	303.27197	1297.97131	257.09830	295.30536	1414.91467	165.00468	270.35156	1395.06128	171.19757	183.70248	1499.61340	176.69380	221.90703	1357.85071	42.97990	279.91025	1310.10474	51.75523	210.45169	1324.84509	40.10727	161.12039	1071.27637	1015.30151	135.92143	892.11572	993.99420	61.78827	822.96173	714.27856	15.99818	802.25452	673.14777	25.27758	771.07019	738.33502	32.22787	755.54065	693.39178	35.95592	684.89758	492.24976	59.83110	722.24902	494.31940	180.82814	698.83661	284.54340	58.91421	679.63226	242.68416	72.89898	637.71619	302.29572	68.92628	628.20605	256.70044	81.06062	624.92963	84.13934	105.31785	611.96564	106.54943	193.37534	688.79883	36.21060	146.18456	466.38452	81.13975	207.31482	453.13516	110.12453	163.47385	491.04788	59.66748	96.92515
765	3.05600	1075.53662	1020.82794	209.87627	892.09436	968.23364	334.57571	1066.82190	682.38245	347.41583	1067.91772	637.40521	340.94046	1005.35846	672.22821	357.33429	1014.87946	627.86725	348.89694	1117.03088	476.50534	315.25955	1106.44604	478.96323	192.13210	1306.78198	328.57779	303.73041	1331.92676	292.17096	297.03058	1258.16150	286.79330	304.30850	1292.12952	257.07080	296.35345	1409.03894	167.99283	270.99106	1389.61011	174.02126	184.55486	1493.65076	182.77042	222.69576	1356.46350	43.92024	280.07425	1309.81104	51.92066	210.52444	1324.32141	40.64867	161.19586	1063.91638	1015.04761	136.02219	885.18274	994.39600	61.79119	816.40778	714.47260	15.94493	795.60437	673.22058	25.22854	764.29950	738.48810	31.69665	748.69165	693.63470	35.42993	676.11169	493.41052	60.38882	716.48523	495.06546	180.88113	688.96844	283.68829	59.13161	673.86993	243.45813	71.87156	631.03656	302.46573	70.12490	622.27753	256.83130	81.17593	624.83051	83.89461	103.72514	609.45502	106.03392	192.79688	687.99017	37.05143	146.26259	464.15836	77.30526	205.12428	450.33951	106.32100	161.56851	489.92410	56.18705	95.75842
766	3.06000	1068.29431	1020.63202	210.53203	884.07990	967.63379	334.75235	1057.77820	681.01349	347.42581	1058.34485	635.75897	341.10312	996.51288	671.54370	357.95523	1005.20184	626.76282	349.21722	1106.75232	474.93149	316.64951	1096.08496	477.36145	192.96086	1298.35876	330.52982	304.18884	1324.73267	294.45007	297.96765	1251.07654	287.92459	305.37018	1285.01233	258.60269	297.26456	1403.51501	171.06529	271.95853	1383.72473	176.84122	185.48958	1487.46826	188.41824	223.00983	1354.79285	44.90001	279.91177	1309.46204	52.04865	210.61307	1323.33691	41.16161	161.26334	1056.22485	1015.11884	136.44910	878.24939	994.84778	61.79083	809.60034	714.89923	15.92931	788.77832	673.86554	25.42102	757.37549	738.99738	30.84532	741.46008	692.94409	33.24753	667.37903	494.57202	60.97443	710.60352	495.76300	180.72867	683.47528	285.17291	57.56853	668.24603	244.09419	70.69405	624.61810	302.69003	69.99239	616.81842	256.97125	80.99947	623.09955	83.39590	103.60473	607.07477	105.81613	192.32323	687.24548	37.96759	146.28690	461.99258	74.16158	202.95482	447.81622	102.89165	159.44952	489.02176	53.06421	94.46422
767	3.06400	1060.66541	1020.58777	211.17992	876.34088	967.17316	334.93649	1048.65430	679.65063	347.48193	1048.85779	634.33014	341.32040	987.22455	670.54602	358.12015	995.68079	625.72906	349.64471	1096.27844	473.49265	317.51175	1085.45801	475.68454	193.77104	1290.06775	332.18790	305.04068	1316.04968	297.08707	298.19748	1243.10059	289.17236	306.26392	1275.16748	261.15707	297.62146	1397.68298	174.25465	273.03867	1377.55933	179.69542	186.48958	1480.37769	194.10887	223.62740	1353.30432	46.05818	280.13272	1309.05957	52.00200	211.00226	1322.23792	41.76800	161.30193	1048.81409	1015.19843	136.86084	871.31647	995.34790	61.78717	802.73242	715.40082	15.75827	781.77820	674.77057	25.67397	750.29596	739.59521	30.31130	734.40460	693.62823	33.00810	659.81421	495.67798	61.89729	704.66797	496.30139	180.50983	677.22095	285.52103	55.95698	662.96313	244.63969	69.39399	618.56787	302.65948	69.83084	611.61011	257.02170	80.62301	622.12115	83.51764	103.07791	605.02478	105.99465	192.29939	686.44843	38.79840	146.41753	460.02487	71.98066	201.77730	445.54019	99.57370	157.52336	488.23715	50.12500	93.32266
768	3.06800	1053.25183	1020.74506	211.84914	868.77405	966.76819	335.02036	1039.36072	678.20764	347.58151	1039.49109	633.15491	341.60117	977.86041	669.62964	358.39966	986.42004	624.77917	350.21545	1085.54187	472.07657	318.36917	1074.43115	473.85904	194.71419	1280.92615	334.16116	305.56775	1307.36938	299.16052	298.71115	1234.85217	290.34677	307.28217	1269.25586	264.24850	299.03485	1391.50024	177.55925	274.12656	1370.85950	182.52940	187.58647	1473.34436	200.68369	224.36240	1351.26514	47.25273	280.56079	1308.07605	52.72622	210.87906	1321.08154	42.62291	161.38763	1041.44702	1015.40002	137.37946	864.38416	995.89478	61.78022	795.56439	716.07013	15.68827	774.60144	675.53906	25.71251	743.20892	740.59119	29.89438	727.19226	694.62360	32.77702	651.02289	496.53839	61.67289	698.53821	496.63403	180.02771	671.91949	286.48959	54.54282	657.88965	244.91701	68.04726	613.00049	302.57465	69.54279	606.59283	256.70258	80.29787	620.45050	83.04273	103.15826	602.69269	105.66234	192.28983	685.77228	39.49987	146.54565	458.23535	68.87619	200.00063	443.44580	96.37010	155.90329	488.42191	47.87748	90.76919
769	3.07200	1045.36267	1020.87091	212.60608	861.26477	966.37488	335.13577	1029.94775	676.73511	347.85599	1029.72253	631.64008	341.97235	968.41248	668.63141	358.71921	976.51434	623.68848	350.71423	1074.59839	470.58102	319.36215	1063.12268	471.89822	195.70587	1271.90479	335.86627	306.46255	1299.88611	300.37552	300.29449	1226.00317	291.60141	308.16531	1261.78845	263.41617	300.44485	1385.30408	180.93001	275.36862	1363.89075	185.44182	188.71869	1465.40991	206.92523	225.18600	1349.97156	48.68838	280.93710	1307.36206	52.73767	211.50192	1319.81494	43.79140	161.58614	1034.14160	1015.69989	138.00191	857.45343	996.48669	61.76997	788.25330	716.90216	15.55759	767.03217	676.59857	25.53920	736.12952	741.60840	29.72777	719.80072	695.76123	32.73680	643.76746	497.08990	61.61793	692.19592	496.98743	179.65294	666.04779	286.19339	53.18932	653.39764	245.11305	66.53493	607.99255	302.33661	69.04900	602.16833	256.54620	79.58177	619.24115	82.89281	103.05874	600.62061	105.32325	192.09930	685.12024	40.26834	146.66275	456.73352	66.32761	199.06944	441.55957	93.22515	154.82381	487.49841	45.25452	90.39722
